solid OpenSCAD_Model
  facet normal -0.885459 0 0.464718
    outer loop
      vertex -13.3698 0 2.49951
      vertex -12.7207 0 3.73626
      vertex -13.3698 51 2.49951
    endloop
  endfacet
  facet normal -0.885459 0 0.464718
    outer loop
      vertex -13.3698 51 2.49951
      vertex -12.7207 0 3.73626
      vertex -12.7207 51 3.73626
    endloop
  endfacet
  facet normal 0 -1 0
    outer loop
      vertex -1.83692 0 -3.5
      vertex 11 0 -3.5
      vertex -12.7207 0 3.73626
    endloop
  endfacet
  facet normal 0 -1 0
    outer loop
      vertex -12.7207 0 3.73626
      vertex -13.3698 0 2.49951
      vertex -2 0 -3.46777
    endloop
  endfacet
  facet normal 0 -1 0
    outer loop
      vertex -1.93858 0 -3.5
      vertex -12.7207 0 3.73626
      vertex -2 0 -3.46777
    endloop
  endfacet
  facet normal 0 -1 0
    outer loop
      vertex -2 0 -3.5
      vertex -1.93858 0 -3.5
      vertex -2 0 -3.46777
    endloop
  endfacet
  facet normal 0 -1 0
    outer loop
      vertex -1.93858 0 -3.5
      vertex -1.85887 0 -3.54183
      vertex -12.7207 0 3.73626
    endloop
  endfacet
  facet normal 0 -1 0
    outer loop
      vertex -1.85887 0 -3.54183
      vertex -1.83692 0 -3.5
      vertex -12.7207 0 3.73626
    endloop
  endfacet
  facet normal 0 -1 0
    outer loop
      vertex -0.952683 0 0.5
      vertex -5.17782 0 2.71749
      vertex -12.7207 0 3.73626
    endloop
  endfacet
  facet normal 0 -1 0
    outer loop
      vertex 11 0 -3.5
      vertex -0.952683 0 0.5
      vertex -12.7207 0 3.73626
    endloop
  endfacet
  facet normal 0 -1 0
    outer loop
      vertex 11 0 -3.5
      vertex 11 0 -1.68382
      vertex -0.952683 0 0.5
    endloop
  endfacet
  facet normal 0 -1 0
    outer loop
      vertex 5 0 0.5
      vertex -0.952683 0 0.5
      vertex 11 0 -1.68382
    endloop
  endfacet
  facet normal -0.464718 0 -0.885459
    outer loop
      vertex -8.05708 5 -0.288805
      vertex -13.3698 51 2.49951
      vertex -2 0 -3.46777
    endloop
  endfacet
  facet normal -0.464718 0 -0.885459
    outer loop
      vertex -8.97484 46.4266 0.192864
      vertex -13.3698 51 2.49951
      vertex -2 51 -3.46777
    endloop
  endfacet
  facet normal -0.464718 0 -0.885459
    outer loop
      vertex -13.3698 0 2.49951
      vertex -13.3698 51 2.49951
      vertex -10.7135 5 1.10535
    endloop
  endfacet
  facet normal -0.464718 0 -0.885459
    outer loop
      vertex -13.3698 0 2.49951
      vertex -10.7135 5 1.10535
      vertex -10.6485 4.53647 1.07123
    endloop
  endfacet
  facet normal -0.464718 0 -0.885459
    outer loop
      vertex -13.3698 0 2.49951
      vertex -10.6485 4.53647 1.07123
      vertex -10.4598 4.11832 0.97222
    endloop
  endfacet
  facet normal -0.464718 0 -0.885459
    outer loop
      vertex -13.3698 0 2.49951
      vertex -10.4598 4.11832 0.97222
      vertex -10.166 3.78647 0.818004
    endloop
  endfacet
  facet normal -0.464718 0 -0.885459
    outer loop
      vertex -13.3698 0 2.49951
      vertex -10.166 3.78647 0.818004
      vertex -9.7957 3.57341 0.623681
    endloop
  endfacet
  facet normal -0.464718 0 -0.885459
    outer loop
      vertex -13.3698 0 2.49951
      vertex -9.7957 3.57341 0.623681
      vertex -2 0 -3.46777
    endloop
  endfacet
  facet normal -0.464718 0 -0.885459
    outer loop
      vertex -8.97484 3.57341 0.192864
      vertex -2 0 -3.46777
      vertex -9.38527 3.5 0.408272
    endloop
  endfacet
  facet normal -0.464718 0 -0.885459
    outer loop
      vertex -8.60458 3.78647 -0.00145955
      vertex -2 0 -3.46777
      vertex -8.97484 3.57341 0.192864
    endloop
  endfacet
  facet normal -0.464718 0 -0.885459
    outer loop
      vertex -8.31075 4.11832 -0.155675
      vertex -2 0 -3.46777
      vertex -8.60458 3.78647 -0.00145955
    endloop
  endfacet
  facet normal -0.464718 0 -0.885459
    outer loop
      vertex -10.4598 44.1183 0.97222
      vertex -2 0 -3.46777
      vertex -10.6485 44.5365 1.07123
    endloop
  endfacet
  facet normal -0.464718 0 -0.885459
    outer loop
      vertex -8.31075 5.88168 -0.155675
      vertex -13.3698 51 2.49951
      vertex -8.12209 5.46352 -0.254688
    endloop
  endfacet
  facet normal -0.464718 0 -0.885459
    outer loop
      vertex -8.60458 6.21352 -0.00145955
      vertex -13.3698 51 2.49951
      vertex -8.31075 5.88168 -0.155675
    endloop
  endfacet
  facet normal -0.464718 0 -0.885459
    outer loop
      vertex -8.31075 4.11832 -0.155675
      vertex -8.12209 4.53647 -0.254688
      vertex -2 0 -3.46777
    endloop
  endfacet
  facet normal -0.464718 0 -0.885459
    outer loop
      vertex -8.12209 5.46352 -0.254688
      vertex -13.3698 51 2.49951
      vertex -8.05708 5 -0.288805
    endloop
  endfacet
  facet normal -0.464718 0 -0.885459
    outer loop
      vertex -8.12209 4.53647 -0.254688
      vertex -8.05708 5 -0.288805
      vertex -2 0 -3.46777
    endloop
  endfacet
  facet normal -0.464718 0 -0.885459
    outer loop
      vertex -8.97484 6.42658 0.192864
      vertex -13.3698 51 2.49951
      vertex -8.60458 6.21352 -0.00145955
    endloop
  endfacet
  facet normal -0.464718 0 -0.885459
    outer loop
      vertex -9.38527 6.5 0.408272
      vertex -13.3698 51 2.49951
      vertex -8.97484 6.42658 0.192864
    endloop
  endfacet
  facet normal -0.464718 0 -0.885459
    outer loop
      vertex -9.7957 6.42658 0.623681
      vertex -13.3698 51 2.49951
      vertex -9.38527 6.5 0.408272
    endloop
  endfacet
  facet normal -0.464718 0 -0.885459
    outer loop
      vertex -10.166 6.21352 0.818004
      vertex -13.3698 51 2.49951
      vertex -9.7957 6.42658 0.623681
    endloop
  endfacet
  facet normal -0.464718 0 -0.885459
    outer loop
      vertex -10.4598 5.88168 0.97222
      vertex -13.3698 51 2.49951
      vertex -10.166 6.21352 0.818004
    endloop
  endfacet
  facet normal -0.464718 0 -0.885459
    outer loop
      vertex -10.6485 5.46352 1.07123
      vertex -13.3698 51 2.49951
      vertex -10.4598 5.88168 0.97222
    endloop
  endfacet
  facet normal -0.464718 0 -0.885459
    outer loop
      vertex -10.7135 5 1.10535
      vertex -13.3698 51 2.49951
      vertex -10.6485 5.46352 1.07123
    endloop
  endfacet
  facet normal -0.464718 0 -0.885459
    outer loop
      vertex -10.6485 44.5365 1.07123
      vertex -13.3698 51 2.49951
      vertex -10.7135 45 1.10535
    endloop
  endfacet
  facet normal -0.464718 0 -0.885459
    outer loop
      vertex -2 0 -3.46777
      vertex -13.3698 51 2.49951
      vertex -10.6485 44.5365 1.07123
    endloop
  endfacet
  facet normal -0.464718 0 -0.885459
    outer loop
      vertex -8.12209 44.5365 -0.254688
      vertex -2 51 -3.46777
      vertex -8.31075 44.1183 -0.155675
    endloop
  endfacet
  facet normal -0.464718 0 -0.885459
    outer loop
      vertex -2 0 -3.46777
      vertex -10.4598 44.1183 0.97222
      vertex -10.166 43.7865 0.818004
    endloop
  endfacet
  facet normal -0.464718 0 -0.885459
    outer loop
      vertex -2 0 -3.46777
      vertex -10.166 43.7865 0.818004
      vertex -9.7957 43.5734 0.623681
    endloop
  endfacet
  facet normal -0.464718 0 -0.885459
    outer loop
      vertex -2 0 -3.46777
      vertex -9.7957 43.5734 0.623681
      vertex -9.38527 43.5 0.408272
    endloop
  endfacet
  facet normal -0.464718 0 -0.885459
    outer loop
      vertex -2 0 -3.46777
      vertex -9.38527 43.5 0.408272
      vertex -8.97484 43.5734 0.192864
    endloop
  endfacet
  facet normal -0.464718 0 -0.885459
    outer loop
      vertex -2 0 -3.46777
      vertex -8.97484 43.5734 0.192864
      vertex -8.60458 43.7865 -0.00145955
    endloop
  endfacet
  facet normal -0.464718 0 -0.885459
    outer loop
      vertex -2 0 -3.46777
      vertex -8.60458 43.7865 -0.00145955
      vertex -2 51 -3.46777
    endloop
  endfacet
  facet normal -0.464718 0 -0.885459
    outer loop
      vertex -8.60458 43.7865 -0.00145955
      vertex -8.31075 44.1183 -0.155675
      vertex -2 51 -3.46777
    endloop
  endfacet
  facet normal -0.464718 0 -0.885459
    outer loop
      vertex -8.05708 45 -0.288805
      vertex -2 51 -3.46777
      vertex -8.12209 44.5365 -0.254688
    endloop
  endfacet
  facet normal -0.464718 0 -0.885459
    outer loop
      vertex -8.12209 45.4635 -0.254688
      vertex -2 51 -3.46777
      vertex -8.05708 45 -0.288805
    endloop
  endfacet
  facet normal -0.464718 0 -0.885459
    outer loop
      vertex -8.31075 45.8817 -0.155675
      vertex -2 51 -3.46777
      vertex -8.12209 45.4635 -0.254688
    endloop
  endfacet
  facet normal -0.464718 0 -0.885459
    outer loop
      vertex -8.97484 46.4266 0.192864
      vertex -2 51 -3.46777
      vertex -8.60458 46.2135 -0.00145955
    endloop
  endfacet
  facet normal -0.464718 0 -0.885459
    outer loop
      vertex -8.31075 45.8817 -0.155675
      vertex -8.60458 46.2135 -0.00145955
      vertex -2 51 -3.46777
    endloop
  endfacet
  facet normal -0.464718 0 -0.885459
    outer loop
      vertex -9.38527 46.5 0.408272
      vertex -13.3698 51 2.49951
      vertex -8.97484 46.4266 0.192864
    endloop
  endfacet
  facet normal -0.464718 0 -0.885459
    outer loop
      vertex -9.7957 46.4266 0.623681
      vertex -13.3698 51 2.49951
      vertex -9.38527 46.5 0.408272
    endloop
  endfacet
  facet normal -0.464718 0 -0.885459
    outer loop
      vertex -10.166 46.2135 0.818004
      vertex -13.3698 51 2.49951
      vertex -9.7957 46.4266 0.623681
    endloop
  endfacet
  facet normal -0.464718 0 -0.885459
    outer loop
      vertex -10.4598 45.8817 0.97222
      vertex -13.3698 51 2.49951
      vertex -10.166 46.2135 0.818004
    endloop
  endfacet
  facet normal -0.464718 0 -0.885459
    outer loop
      vertex -10.6485 45.4635 1.07123
      vertex -13.3698 51 2.49951
      vertex -10.4598 45.8817 0.97222
    endloop
  endfacet
  facet normal -0.464718 0 -0.885459
    outer loop
      vertex -10.7135 45 1.10535
      vertex -13.3698 51 2.49951
      vertex -10.6485 45.4635 1.07123
    endloop
  endfacet
  facet normal -0.464718 0 -0.885459
    outer loop
      vertex -9.38527 3.5 0.408272
      vertex -2 0 -3.46777
      vertex -9.7957 3.57341 0.623681
    endloop
  endfacet
  facet normal 0 1 0
    outer loop
      vertex -13.3698 51 2.49951
      vertex -12.7207 51 3.73626
      vertex -2 51 -3.46777
    endloop
  endfacet
  facet normal 0 1 0
    outer loop
      vertex -2 51 -3.46777
      vertex -12.7207 51 3.73626
      vertex -5.17782 51 2.71749
    endloop
  endfacet
  facet normal 0 1 0
    outer loop
      vertex -2 51 -3.46777
      vertex -5.17782 51 2.71749
      vertex -0.952683 51 0.5
    endloop
  endfacet
  facet normal 0 1 0
    outer loop
      vertex -2 51 -3.46777
      vertex -0.952683 51 0.5
      vertex 5 51 0.5
    endloop
  endfacet
  facet normal 0 1 0
    outer loop
      vertex -2 51 -3.46777
      vertex 5 51 0.5
      vertex 11 51 -1.68382
    endloop
  endfacet
  facet normal 0 1 0
    outer loop
      vertex -2 51 -3.46777
      vertex 11 51 -1.68382
      vertex 11 51 -3.5
    endloop
  endfacet
  facet normal 0 1 0
    outer loop
      vertex -2 51 -3.46777
      vertex 11 51 -3.5
      vertex -1.83692 51 -3.5
    endloop
  endfacet
  facet normal 0 1 0
    outer loop
      vertex -1.93858 51 -3.5
      vertex -1.83692 51 -3.5
      vertex -1.85887 51 -3.54183
    endloop
  endfacet
  facet normal 0 1 0
    outer loop
      vertex -2 51 -3.46777
      vertex -1.83692 51 -3.5
      vertex -1.93858 51 -3.5
    endloop
  endfacet
  facet normal 0 1 0
    outer loop
      vertex -1.93858 51 -3.5
      vertex -2 51 -3.5
      vertex -2 51 -3.46777
    endloop
  endfacet
  facet normal 0.133848 0 0.991002
    outer loop
      vertex -9.25482 45.8817 3.26814
      vertex -5.17782 51 2.71749
      vertex -12.7207 51 3.73626
    endloop
  endfacet
  facet normal 0.133848 0 0.991002
    outer loop
      vertex -6.47055 5.46352 2.89209
      vertex -5.17782 0 2.71749
      vertex -12.7207 51 3.73626
    endloop
  endfacet
  facet normal 0.133848 0 0.991002
    outer loop
      vertex -12.7207 0 3.73626
      vertex -9.55694 5 3.30895
      vertex -12.7207 51 3.73626
    endloop
  endfacet
  facet normal 0.133848 0 0.991002
    outer loop
      vertex -9.55694 5 3.30895
      vertex -9.47951 5.46352 3.29849
      vertex -12.7207 51 3.73626
    endloop
  endfacet
  facet normal 0.133848 0 0.991002
    outer loop
      vertex -9.47951 5.46352 3.29849
      vertex -9.25482 5.88168 3.26814
      vertex -12.7207 51 3.73626
    endloop
  endfacet
  facet normal 0.133848 0 0.991002
    outer loop
      vertex -7.97503 3.5 3.09529
      vertex -8.46387 3.57341 3.16132
      vertex -5.17782 0 2.71749
    endloop
  endfacet
  facet normal 0.133848 0 0.991002
    outer loop
      vertex -9.25482 5.88168 3.26814
      vertex -8.90485 6.21352 3.22088
      vertex -12.7207 51 3.73626
    endloop
  endfacet
  facet normal 0.133848 0 0.991002
    outer loop
      vertex -8.90485 6.21352 3.22088
      vertex -8.46387 6.42658 3.16132
      vertex -12.7207 51 3.73626
    endloop
  endfacet
  facet normal 0.133848 0 0.991002
    outer loop
      vertex -8.46387 6.42658 3.16132
      vertex -7.97503 6.5 3.09529
      vertex -12.7207 51 3.73626
    endloop
  endfacet
  facet normal 0.133848 0 0.991002
    outer loop
      vertex -7.97503 6.5 3.09529
      vertex -7.4862 6.42658 3.02927
      vertex -12.7207 51 3.73626
    endloop
  endfacet
  facet normal 0.133848 0 0.991002
    outer loop
      vertex -7.4862 6.42658 3.02927
      vertex -7.04521 6.21352 2.96971
      vertex -12.7207 51 3.73626
    endloop
  endfacet
  facet normal 0.133848 0 0.991002
    outer loop
      vertex -6.69525 4.11832 2.92244
      vertex -7.04521 3.78647 2.96971
      vertex -5.17782 0 2.71749
    endloop
  endfacet
  facet normal 0.133848 0 0.991002
    outer loop
      vertex -7.04521 6.21352 2.96971
      vertex -6.69525 5.88168 2.92244
      vertex -12.7207 51 3.73626
    endloop
  endfacet
  facet normal 0.133848 0 0.991002
    outer loop
      vertex -6.69525 5.88168 2.92244
      vertex -6.47055 5.46352 2.89209
      vertex -12.7207 51 3.73626
    endloop
  endfacet
  facet normal 0.133848 0 0.991002
    outer loop
      vertex -6.39313 5 2.88164
      vertex -5.17782 0 2.71749
      vertex -6.47055 5.46352 2.89209
    endloop
  endfacet
  facet normal 0.133848 0 0.991002
    outer loop
      vertex -7.04521 3.78647 2.96971
      vertex -7.4862 3.57341 3.02927
      vertex -5.17782 0 2.71749
    endloop
  endfacet
  facet normal 0.133848 0 0.991002
    outer loop
      vertex -7.4862 3.57341 3.02927
      vertex -7.97503 3.5 3.09529
      vertex -5.17782 0 2.71749
    endloop
  endfacet
  facet normal 0.133848 0 0.991002
    outer loop
      vertex -8.90485 46.2135 3.22088
      vertex -8.46387 46.4266 3.16132
      vertex -5.17782 51 2.71749
    endloop
  endfacet
  facet normal 0.133848 0 0.991002
    outer loop
      vertex -12.7207 0 3.73626
      vertex -5.17782 0 2.71749
      vertex -8.46387 3.57341 3.16132
    endloop
  endfacet
  facet normal 0.133848 0 0.991002
    outer loop
      vertex -12.7207 0 3.73626
      vertex -8.46387 3.57341 3.16132
      vertex -8.90485 3.78647 3.22088
    endloop
  endfacet
  facet normal 0.133848 0 0.991002
    outer loop
      vertex -12.7207 0 3.73626
      vertex -8.90485 3.78647 3.22088
      vertex -9.25482 4.11832 3.26814
    endloop
  endfacet
  facet normal 0.133848 0 0.991002
    outer loop
      vertex -12.7207 0 3.73626
      vertex -9.47951 4.53647 3.29849
      vertex -9.55694 5 3.30895
    endloop
  endfacet
  facet normal 0.133848 0 0.991002
    outer loop
      vertex -12.7207 0 3.73626
      vertex -9.25482 4.11832 3.26814
      vertex -9.47951 4.53647 3.29849
    endloop
  endfacet
  facet normal 0.133848 0 0.991002
    outer loop
      vertex -5.17782 0 2.71749
      vertex -9.55694 45 3.30895
      vertex -12.7207 51 3.73626
    endloop
  endfacet
  facet normal 0.133848 0 0.991002
    outer loop
      vertex -9.55694 45 3.30895
      vertex -9.47951 45.4635 3.29849
      vertex -12.7207 51 3.73626
    endloop
  endfacet
  facet normal 0.133848 0 0.991002
    outer loop
      vertex -6.39313 45 2.88164
      vertex -6.47055 44.5365 2.89209
      vertex -5.17782 0 2.71749
    endloop
  endfacet
  facet normal 0.133848 0 0.991002
    outer loop
      vertex -9.47951 45.4635 3.29849
      vertex -9.25482 45.8817 3.26814
      vertex -12.7207 51 3.73626
    endloop
  endfacet
  facet normal 0.133848 0 0.991002
    outer loop
      vertex -8.90485 46.2135 3.22088
      vertex -5.17782 51 2.71749
      vertex -9.25482 45.8817 3.26814
    endloop
  endfacet
  facet normal 0.133848 0 0.991002
    outer loop
      vertex -7.97503 46.5 3.09529
      vertex -5.17782 51 2.71749
      vertex -8.46387 46.4266 3.16132
    endloop
  endfacet
  facet normal 0.133848 0 0.991002
    outer loop
      vertex -7.4862 46.4266 3.02927
      vertex -5.17782 51 2.71749
      vertex -7.97503 46.5 3.09529
    endloop
  endfacet
  facet normal 0.133848 0 0.991002
    outer loop
      vertex -7.04521 46.2135 2.96971
      vertex -5.17782 51 2.71749
      vertex -7.4862 46.4266 3.02927
    endloop
  endfacet
  facet normal 0.133848 0 0.991002
    outer loop
      vertex -6.69525 45.8817 2.92244
      vertex -5.17782 51 2.71749
      vertex -7.04521 46.2135 2.96971
    endloop
  endfacet
  facet normal 0.133848 0 0.991002
    outer loop
      vertex -6.47055 45.4635 2.89209
      vertex -5.17782 51 2.71749
      vertex -6.69525 45.8817 2.92244
    endloop
  endfacet
  facet normal 0.133848 0 0.991002
    outer loop
      vertex -6.39313 45 2.88164
      vertex -5.17782 51 2.71749
      vertex -6.47055 45.4635 2.89209
    endloop
  endfacet
  facet normal 0.133848 0 0.991002
    outer loop
      vertex -6.47055 44.5365 2.89209
      vertex -6.69525 44.1183 2.92244
      vertex -5.17782 0 2.71749
    endloop
  endfacet
  facet normal 0.133848 0 0.991002
    outer loop
      vertex -5.17782 0 2.71749
      vertex -5.17782 51 2.71749
      vertex -6.39313 45 2.88164
    endloop
  endfacet
  facet normal 0.133848 0 0.991002
    outer loop
      vertex -6.69525 44.1183 2.92244
      vertex -7.04521 43.7865 2.96971
      vertex -5.17782 0 2.71749
    endloop
  endfacet
  facet normal 0.133848 0 0.991002
    outer loop
      vertex -7.04521 43.7865 2.96971
      vertex -7.4862 43.5734 3.02927
      vertex -5.17782 0 2.71749
    endloop
  endfacet
  facet normal 0.133848 0 0.991002
    outer loop
      vertex -7.4862 43.5734 3.02927
      vertex -7.97503 43.5 3.09529
      vertex -5.17782 0 2.71749
    endloop
  endfacet
  facet normal 0.133848 0 0.991002
    outer loop
      vertex -7.97503 43.5 3.09529
      vertex -8.46387 43.5734 3.16132
      vertex -5.17782 0 2.71749
    endloop
  endfacet
  facet normal 0.133848 0 0.991002
    outer loop
      vertex -5.17782 0 2.71749
      vertex -8.46387 43.5734 3.16132
      vertex -8.90485 43.7865 3.22088
    endloop
  endfacet
  facet normal 0.133848 0 0.991002
    outer loop
      vertex -5.17782 0 2.71749
      vertex -8.90485 43.7865 3.22088
      vertex -9.25482 44.1183 3.26814
    endloop
  endfacet
  facet normal 0.133848 0 0.991002
    outer loop
      vertex -5.17782 0 2.71749
      vertex -9.47951 44.5365 3.29849
      vertex -9.55694 45 3.30895
    endloop
  endfacet
  facet normal 0.133848 0 0.991002
    outer loop
      vertex -5.17782 0 2.71749
      vertex -9.25482 44.1183 3.26814
      vertex -9.47951 44.5365 3.29849
    endloop
  endfacet
  facet normal 0.133848 0 0.991002
    outer loop
      vertex -6.39313 5 2.88164
      vertex -6.47055 4.53647 2.89209
      vertex -5.17782 0 2.71749
    endloop
  endfacet
  facet normal 0.133848 0 0.991002
    outer loop
      vertex -6.47055 4.53647 2.89209
      vertex -6.69525 4.11832 2.92244
      vertex -5.17782 0 2.71749
    endloop
  endfacet
  facet normal 0.464718 0 0.885459
    outer loop
      vertex -5.17782 51 2.71749
      vertex -5.17782 0 2.71749
      vertex -0.952683 0 0.5
    endloop
  endfacet
  facet normal 0.464718 0 0.885459
    outer loop
      vertex -0.952683 51 0.5
      vertex -5.17782 51 2.71749
      vertex -0.952683 0 0.5
    endloop
  endfacet
  facet normal 0 0 1
    outer loop
      vertex -0.952683 51 0.5
      vertex -0.952683 0 0.5
      vertex 5 0 0.5
    endloop
  endfacet
  facet normal 0 0 1
    outer loop
      vertex 5 51 0.5
      vertex -0.952683 51 0.5
      vertex 5 0 0.5
    endloop
  endfacet
  facet normal 0.34202 0 0.939693
    outer loop
      vertex 6.11832 46.2135 0.0929641
      vertex 11 51 -1.68382
      vertex 5 51 0.5
    endloop
  endfacet
  facet normal 0.34202 0 0.939693
    outer loop
      vertex 6.11832 46.2135 0.0929641
      vertex 6.53647 46.4266 -0.0592312
      vertex 11 51 -1.68382
    endloop
  endfacet
  facet normal 0.34202 0 0.939693
    outer loop
      vertex 5 0 0.5
      vertex 5.5 5 0.318015
      vertex 5 51 0.5
    endloop
  endfacet
  facet normal 0.34202 0 0.939693
    outer loop
      vertex 5.5 5 0.318015
      vertex 5.57341 5.46352 0.291294
      vertex 5 51 0.5
    endloop
  endfacet
  facet normal 0.34202 0 0.939693
    outer loop
      vertex 5.57341 5.46352 0.291294
      vertex 5.78647 5.88168 0.213747
      vertex 5 51 0.5
    endloop
  endfacet
  facet normal 0.34202 0 0.939693
    outer loop
      vertex 5.78647 5.88168 0.213747
      vertex 6.11832 6.21352 0.0929641
      vertex 5 51 0.5
    endloop
  endfacet
  facet normal 0.34202 0 0.939693
    outer loop
      vertex 6.11832 6.21352 0.0929641
      vertex 6.53647 6.42658 -0.0592312
      vertex 5 51 0.5
    endloop
  endfacet
  facet normal 0.34202 0 0.939693
    outer loop
      vertex 7.88168 3.78647 -0.548845
      vertex 7.46352 3.57341 -0.39665
      vertex 11 0 -1.68382
    endloop
  endfacet
  facet normal 0.34202 0 0.939693
    outer loop
      vertex 6.53647 6.42658 -0.0592312
      vertex 7 6.5 -0.22794
      vertex 5 51 0.5
    endloop
  endfacet
  facet normal 0.34202 0 0.939693
    outer loop
      vertex 7 6.5 -0.22794
      vertex 7.46352 6.42658 -0.39665
      vertex 5 51 0.5
    endloop
  endfacet
  facet normal 0.34202 0 0.939693
    outer loop
      vertex 7.46352 6.42658 -0.39665
      vertex 7.88168 6.21352 -0.548845
      vertex 5 51 0.5
    endloop
  endfacet
  facet normal 0.34202 0 0.939693
    outer loop
      vertex 8.42658 4.53647 -0.747175
      vertex 8.21352 4.11832 -0.669627
      vertex 11 0 -1.68382
    endloop
  endfacet
  facet normal 0.34202 0 0.939693
    outer loop
      vertex 7.88168 6.21352 -0.548845
      vertex 8.21352 5.88168 -0.669627
      vertex 5 51 0.5
    endloop
  endfacet
  facet normal 0.34202 0 0.939693
    outer loop
      vertex 8.21352 5.88168 -0.669627
      vertex 8.42658 5.46352 -0.747175
      vertex 5 51 0.5
    endloop
  endfacet
  facet normal 0.34202 0 0.939693
    outer loop
      vertex 8.21352 4.11832 -0.669627
      vertex 7.88168 3.78647 -0.548845
      vertex 11 0 -1.68382
    endloop
  endfacet
  facet normal 0.34202 0 0.939693
    outer loop
      vertex 7.46352 3.57341 -0.39665
      vertex 7 3.5 -0.22794
      vertex 11 0 -1.68382
    endloop
  endfacet
  facet normal 0.34202 0 0.939693
    outer loop
      vertex 5.57341 45.4635 0.291294
      vertex 5.78647 45.8817 0.213747
      vertex 5 51 0.5
    endloop
  endfacet
  facet normal 0.34202 0 0.939693
    outer loop
      vertex 5 0 0.5
      vertex 11 0 -1.68382
      vertex 7 3.5 -0.22794
    endloop
  endfacet
  facet normal 0.34202 0 0.939693
    outer loop
      vertex 5 0 0.5
      vertex 7 3.5 -0.22794
      vertex 6.53647 3.57341 -0.0592312
    endloop
  endfacet
  facet normal 0.34202 0 0.939693
    outer loop
      vertex 5 0 0.5
      vertex 6.53647 3.57341 -0.0592312
      vertex 6.11832 3.78647 0.0929641
    endloop
  endfacet
  facet normal 0.34202 0 0.939693
    outer loop
      vertex 5 0 0.5
      vertex 6.11832 3.78647 0.0929641
      vertex 5.78647 4.11832 0.213747
    endloop
  endfacet
  facet normal 0.34202 0 0.939693
    outer loop
      vertex 5 0 0.5
      vertex 5.57341 4.53647 0.291294
      vertex 5.5 5 0.318015
    endloop
  endfacet
  facet normal 0.34202 0 0.939693
    outer loop
      vertex 5 0 0.5
      vertex 5.78647 4.11832 0.213747
      vertex 5.57341 4.53647 0.291294
    endloop
  endfacet
  facet normal 0.34202 0 0.939693
    outer loop
      vertex 8.42658 5.46352 -0.747175
      vertex 5.5 45 0.318015
      vertex 5 51 0.5
    endloop
  endfacet
  facet normal 0.34202 0 0.939693
    outer loop
      vertex 8.42658 5.46352 -0.747175
      vertex 11 0 -1.68382
      vertex 5.5 45 0.318015
    endloop
  endfacet
  facet normal 0.34202 0 0.939693
    outer loop
      vertex 5.5 45 0.318015
      vertex 5.57341 45.4635 0.291294
      vertex 5 51 0.5
    endloop
  endfacet
  facet normal 0.34202 0 0.939693
    outer loop
      vertex 5.78647 45.8817 0.213747
      vertex 6.11832 46.2135 0.0929641
      vertex 5 51 0.5
    endloop
  endfacet
  facet normal 0.34202 0 0.939693
    outer loop
      vertex 8.5 45 -0.773896
      vertex 8.42658 44.5365 -0.747175
      vertex 11 0 -1.68382
    endloop
  endfacet
  facet normal 0.34202 0 0.939693
    outer loop
      vertex 7 46.5 -0.22794
      vertex 11 51 -1.68382
      vertex 6.53647 46.4266 -0.0592312
    endloop
  endfacet
  facet normal 0.34202 0 0.939693
    outer loop
      vertex 7.46352 46.4266 -0.39665
      vertex 11 51 -1.68382
      vertex 7 46.5 -0.22794
    endloop
  endfacet
  facet normal 0.34202 0 0.939693
    outer loop
      vertex 7.88168 46.2135 -0.548845
      vertex 11 51 -1.68382
      vertex 7.46352 46.4266 -0.39665
    endloop
  endfacet
  facet normal 0.34202 0 0.939693
    outer loop
      vertex 8.21352 45.8817 -0.669627
      vertex 11 51 -1.68382
      vertex 7.88168 46.2135 -0.548845
    endloop
  endfacet
  facet normal 0.34202 0 0.939693
    outer loop
      vertex 8.42658 45.4635 -0.747175
      vertex 11 51 -1.68382
      vertex 8.21352 45.8817 -0.669627
    endloop
  endfacet
  facet normal 0.34202 0 0.939693
    outer loop
      vertex 8.5 45 -0.773896
      vertex 11 51 -1.68382
      vertex 8.42658 45.4635 -0.747175
    endloop
  endfacet
  facet normal 0.34202 0 0.939693
    outer loop
      vertex 8.42658 44.5365 -0.747175
      vertex 8.21352 44.1183 -0.669627
      vertex 11 0 -1.68382
    endloop
  endfacet
  facet normal 0.34202 0 0.939693
    outer loop
      vertex 11 0 -1.68382
      vertex 11 51 -1.68382
      vertex 8.5 45 -0.773896
    endloop
  endfacet
  facet normal 0.34202 0 0.939693
    outer loop
      vertex 8.21352 44.1183 -0.669627
      vertex 7.88168 43.7865 -0.548845
      vertex 11 0 -1.68382
    endloop
  endfacet
  facet normal 0.34202 0 0.939693
    outer loop
      vertex 7.88168 43.7865 -0.548845
      vertex 7.46352 43.5734 -0.39665
      vertex 11 0 -1.68382
    endloop
  endfacet
  facet normal 0.34202 0 0.939693
    outer loop
      vertex 7.46352 43.5734 -0.39665
      vertex 7 43.5 -0.22794
      vertex 11 0 -1.68382
    endloop
  endfacet
  facet normal 0.34202 0 0.939693
    outer loop
      vertex 7 43.5 -0.22794
      vertex 6.53647 43.5734 -0.0592312
      vertex 11 0 -1.68382
    endloop
  endfacet
  facet normal 0.34202 0 0.939693
    outer loop
      vertex 6.11832 43.7865 0.0929641
      vertex 5.78647 44.1183 0.213747
      vertex 11 0 -1.68382
    endloop
  endfacet
  facet normal 0.34202 0 0.939693
    outer loop
      vertex 5.78647 44.1183 0.213747
      vertex 5.57341 44.5365 0.291294
      vertex 11 0 -1.68382
    endloop
  endfacet
  facet normal 0.34202 0 0.939693
    outer loop
      vertex 11 0 -1.68382
      vertex 6.53647 43.5734 -0.0592312
      vertex 6.11832 43.7865 0.0929641
    endloop
  endfacet
  facet normal 0.34202 0 0.939693
    outer loop
      vertex 5.5 45 0.318015
      vertex 11 0 -1.68382
      vertex 5.57341 44.5365 0.291294
    endloop
  endfacet
  facet normal 0.34202 0 0.939693
    outer loop
      vertex 8.42658 5.46352 -0.747175
      vertex 8.5 5 -0.773896
      vertex 11 0 -1.68382
    endloop
  endfacet
  facet normal 0.34202 0 0.939693
    outer loop
      vertex 8.5 5 -0.773896
      vertex 8.42658 4.53647 -0.747175
      vertex 11 0 -1.68382
    endloop
  endfacet
  facet normal 1 0 0
    outer loop
      vertex 11 0 -1.68382
      vertex 11 0 -3.5
      vertex 11 51 -3.5
    endloop
  endfacet
  facet normal 1 0 0
    outer loop
      vertex 11 51 -1.68382
      vertex 11 0 -1.68382
      vertex 11 51 -3.5
    endloop
  endfacet
  facet normal 0 0 -1
    outer loop
      vertex 8.42658 5.46352 -3.5
      vertex -1.83692 51 -3.5
      vertex 11 0 -3.5
    endloop
  endfacet
  facet normal 0 0 -1
    outer loop
      vertex 6.53647 46.4266 -3.5
      vertex -1.83692 51 -3.5
      vertex 11 51 -3.5
    endloop
  endfacet
  facet normal 0 0 -1
    outer loop
      vertex -1.83692 0 -3.5
      vertex -1.83692 51 -3.5
      vertex 5.5 5 -3.5
    endloop
  endfacet
  facet normal 0 0 -1
    outer loop
      vertex -1.83692 0 -3.5
      vertex 5.5 5 -3.5
      vertex 5.57341 4.53647 -3.5
    endloop
  endfacet
  facet normal 0 0 -1
    outer loop
      vertex -1.83692 0 -3.5
      vertex 5.57341 4.53647 -3.5
      vertex 5.78647 4.11832 -3.5
    endloop
  endfacet
  facet normal 0 0 -1
    outer loop
      vertex -1.83692 0 -3.5
      vertex 5.78647 4.11832 -3.5
      vertex 6.11832 3.78647 -3.5
    endloop
  endfacet
  facet normal 0 0 -1
    outer loop
      vertex -1.83692 0 -3.5
      vertex 6.11832 3.78647 -3.5
      vertex 11 0 -3.5
    endloop
  endfacet
  facet normal 0 0 -1
    outer loop
      vertex 7 3.5 -3.5
      vertex 11 0 -3.5
      vertex 6.53647 3.57341 -3.5
    endloop
  endfacet
  facet normal 0 0 -1
    outer loop
      vertex 7.46352 3.57341 -3.5
      vertex 11 0 -3.5
      vertex 7 3.5 -3.5
    endloop
  endfacet
  facet normal 0 0 -1
    outer loop
      vertex 8.5 45 -3.5
      vertex 11 51 -3.5
      vertex 8.42658 44.5365 -3.5
    endloop
  endfacet
  facet normal 0 0 -1
    outer loop
      vertex 8.21352 5.88168 -3.5
      vertex -1.83692 51 -3.5
      vertex 8.42658 5.46352 -3.5
    endloop
  endfacet
  facet normal 0 0 -1
    outer loop
      vertex 6.53647 6.42658 -3.5
      vertex -1.83692 51 -3.5
      vertex 7 6.5 -3.5
    endloop
  endfacet
  facet normal 0 0 -1
    outer loop
      vertex 7.46352 3.57341 -3.5
      vertex 7.88168 3.78647 -3.5
      vertex 11 0 -3.5
    endloop
  endfacet
  facet normal 0 0 -1
    outer loop
      vertex 7 6.5 -3.5
      vertex -1.83692 51 -3.5
      vertex 7.46352 6.42658 -3.5
    endloop
  endfacet
  facet normal 0 0 -1
    outer loop
      vertex 7.88168 3.78647 -3.5
      vertex 8.21352 4.11832 -3.5
      vertex 11 0 -3.5
    endloop
  endfacet
  facet normal 0 0 -1
    outer loop
      vertex 7.46352 6.42658 -3.5
      vertex -1.83692 51 -3.5
      vertex 7.88168 6.21352 -3.5
    endloop
  endfacet
  facet normal 0 0 -1
    outer loop
      vertex 8.21352 4.11832 -3.5
      vertex 8.42658 4.53647 -3.5
      vertex 11 0 -3.5
    endloop
  endfacet
  facet normal 0 0 -1
    outer loop
      vertex 7.88168 6.21352 -3.5
      vertex -1.83692 51 -3.5
      vertex 8.21352 5.88168 -3.5
    endloop
  endfacet
  facet normal 0 0 -1
    outer loop
      vertex 8.42658 4.53647 -3.5
      vertex 8.5 5 -3.5
      vertex 11 0 -3.5
    endloop
  endfacet
  facet normal 0 0 -1
    outer loop
      vertex 8.5 5 -3.5
      vertex 8.42658 5.46352 -3.5
      vertex 11 0 -3.5
    endloop
  endfacet
  facet normal 0 0 -1
    outer loop
      vertex 6.11832 6.21352 -3.5
      vertex -1.83692 51 -3.5
      vertex 6.53647 6.42658 -3.5
    endloop
  endfacet
  facet normal 0 0 -1
    outer loop
      vertex 5.78647 5.88168 -3.5
      vertex -1.83692 51 -3.5
      vertex 6.11832 6.21352 -3.5
    endloop
  endfacet
  facet normal 0 0 -1
    outer loop
      vertex 5.57341 5.46352 -3.5
      vertex -1.83692 51 -3.5
      vertex 5.78647 5.88168 -3.5
    endloop
  endfacet
  facet normal 0 0 -1
    outer loop
      vertex 5.5 5 -3.5
      vertex -1.83692 51 -3.5
      vertex 5.57341 5.46352 -3.5
    endloop
  endfacet
  facet normal 0 0 -1
    outer loop
      vertex 11 0 -3.5
      vertex -1.83692 51 -3.5
      vertex 5.5 45 -3.5
    endloop
  endfacet
  facet normal 0 0 -1
    outer loop
      vertex 11 0 -3.5
      vertex 5.5 45 -3.5
      vertex 5.57341 44.5365 -3.5
    endloop
  endfacet
  facet normal 0 0 -1
    outer loop
      vertex 11 0 -3.5
      vertex 5.57341 44.5365 -3.5
      vertex 5.78647 44.1183 -3.5
    endloop
  endfacet
  facet normal 0 0 -1
    outer loop
      vertex 11 0 -3.5
      vertex 5.78647 44.1183 -3.5
      vertex 6.11832 43.7865 -3.5
    endloop
  endfacet
  facet normal 0 0 -1
    outer loop
      vertex 11 0 -3.5
      vertex 6.11832 43.7865 -3.5
      vertex 6.53647 43.5734 -3.5
    endloop
  endfacet
  facet normal 0 0 -1
    outer loop
      vertex 11 0 -3.5
      vertex 6.53647 43.5734 -3.5
      vertex 7 43.5 -3.5
    endloop
  endfacet
  facet normal 0 0 -1
    outer loop
      vertex 11 0 -3.5
      vertex 7 43.5 -3.5
      vertex 7.46352 43.5734 -3.5
    endloop
  endfacet
  facet normal 0 0 -1
    outer loop
      vertex 11 0 -3.5
      vertex 7.46352 43.5734 -3.5
      vertex 7.88168 43.7865 -3.5
    endloop
  endfacet
  facet normal 0 0 -1
    outer loop
      vertex 11 0 -3.5
      vertex 7.88168 43.7865 -3.5
      vertex 8.21352 44.1183 -3.5
    endloop
  endfacet
  facet normal 0 0 -1
    outer loop
      vertex 11 0 -3.5
      vertex 8.21352 44.1183 -3.5
      vertex 8.42658 44.5365 -3.5
    endloop
  endfacet
  facet normal 0 0 -1
    outer loop
      vertex 11 0 -3.5
      vertex 8.42658 44.5365 -3.5
      vertex 11 51 -3.5
    endloop
  endfacet
  facet normal 0 0 -1
    outer loop
      vertex 8.42658 45.4635 -3.5
      vertex 11 51 -3.5
      vertex 8.5 45 -3.5
    endloop
  endfacet
  facet normal 0 0 -1
    outer loop
      vertex 8.21352 45.8817 -3.5
      vertex 11 51 -3.5
      vertex 8.42658 45.4635 -3.5
    endloop
  endfacet
  facet normal 0 0 -1
    outer loop
      vertex 7.88168 46.2135 -3.5
      vertex 11 51 -3.5
      vertex 8.21352 45.8817 -3.5
    endloop
  endfacet
  facet normal 0 0 -1
    outer loop
      vertex 7.46352 46.4266 -3.5
      vertex 11 51 -3.5
      vertex 7.88168 46.2135 -3.5
    endloop
  endfacet
  facet normal 0 0 -1
    outer loop
      vertex 7 46.5 -3.5
      vertex 11 51 -3.5
      vertex 7.46352 46.4266 -3.5
    endloop
  endfacet
  facet normal 0 0 -1
    outer loop
      vertex 6.53647 46.4266 -3.5
      vertex 11 51 -3.5
      vertex 7 46.5 -3.5
    endloop
  endfacet
  facet normal 0 0 -1
    outer loop
      vertex 6.11832 46.2135 -3.5
      vertex -1.83692 51 -3.5
      vertex 6.53647 46.4266 -3.5
    endloop
  endfacet
  facet normal 0 0 -1
    outer loop
      vertex 5.78647 45.8817 -3.5
      vertex -1.83692 51 -3.5
      vertex 6.11832 46.2135 -3.5
    endloop
  endfacet
  facet normal 0 0 -1
    outer loop
      vertex 5.57341 45.4635 -3.5
      vertex -1.83692 51 -3.5
      vertex 5.78647 45.8817 -3.5
    endloop
  endfacet
  facet normal 0 0 -1
    outer loop
      vertex 5.5 45 -3.5
      vertex -1.83692 51 -3.5
      vertex 5.57341 45.4635 -3.5
    endloop
  endfacet
  facet normal 0 0 -1
    outer loop
      vertex 6.53647 3.57341 -3.5
      vertex 11 0 -3.5
      vertex 6.11832 3.78647 -3.5
    endloop
  endfacet
  facet normal 0.885459 0 -0.464718
    outer loop
      vertex -1.83692 0 -3.5
      vertex -1.85887 0 -3.54183
      vertex -1.85887 51 -3.54183
    endloop
  endfacet
  facet normal 0.885459 0 -0.464718
    outer loop
      vertex -1.83692 51 -3.5
      vertex -1.83692 0 -3.5
      vertex -1.85887 51 -3.54183
    endloop
  endfacet
  facet normal -0.464718 0 -0.885459
    outer loop
      vertex -1.93858 0 -3.5
      vertex -1.93858 51 -3.5
      vertex -1.85887 0 -3.54183
    endloop
  endfacet
  facet normal -0.464718 0 -0.885459
    outer loop
      vertex -1.85887 0 -3.54183
      vertex -1.93858 51 -3.5
      vertex -1.85887 51 -3.54183
    endloop
  endfacet
  facet normal 0 0 -1
    outer loop
      vertex -2 0 -3.5
      vertex -2 51 -3.5
      vertex -1.93858 0 -3.5
    endloop
  endfacet
  facet normal 0 0 -1
    outer loop
      vertex -1.93858 0 -3.5
      vertex -2 51 -3.5
      vertex -1.93858 51 -3.5
    endloop
  endfacet
  facet normal -1 0 0
    outer loop
      vertex -2 0 -3.5
      vertex -2 0 -3.46777
      vertex -2 51 -3.5
    endloop
  endfacet
  facet normal -1 0 0
    outer loop
      vertex -2 51 -3.5
      vertex -2 0 -3.46777
      vertex -2 51 -3.46777
    endloop
  endfacet
  facet normal 0.874557 -0.156434 -0.458997
    outer loop
      vertex -10.6485 5.46352 1.07123
      vertex -9.47951 5.46352 3.29849
      vertex -9.55694 5 3.30895
    endloop
  endfacet
  facet normal 0.874557 -0.156434 -0.458997
    outer loop
      vertex -10.7135 5 1.10535
      vertex -10.6485 5.46352 1.07123
      vertex -9.55694 5 3.30895
    endloop
  endfacet
  facet normal 0.874557 0.156434 -0.458997
    outer loop
      vertex -9.55694 5 3.30895
      vertex -9.47951 4.53647 3.29849
      vertex -10.6485 4.53647 1.07123
    endloop
  endfacet
  facet normal 0.874557 0.156434 -0.458997
    outer loop
      vertex -10.7135 5 1.10535
      vertex -9.55694 5 3.30895
      vertex -10.6485 4.53647 1.07123
    endloop
  endfacet
  facet normal 0.788949 -0.453991 -0.414067
    outer loop
      vertex -10.4598 5.88168 0.97222
      vertex -9.25482 5.88168 3.26814
      vertex -9.47951 5.46352 3.29849
    endloop
  endfacet
  facet normal 0.788949 -0.453991 -0.414067
    outer loop
      vertex -10.6485 5.46352 1.07123
      vertex -10.4598 5.88168 0.97222
      vertex -9.47951 5.46352 3.29849
    endloop
  endfacet
  facet normal 0.626114 -0.707107 -0.328606
    outer loop
      vertex -10.166 6.21352 0.818004
      vertex -8.90485 6.21352 3.22088
      vertex -9.25482 5.88168 3.26814
    endloop
  endfacet
  facet normal 0.626114 -0.707107 -0.328606
    outer loop
      vertex -10.4598 5.88168 0.97222
      vertex -10.166 6.21352 0.818004
      vertex -9.25482 5.88168 3.26814
    endloop
  endfacet
  facet normal 0.40199 -0.891006 -0.210978
    outer loop
      vertex -9.7957 6.42658 0.623681
      vertex -8.46387 6.42658 3.16132
      vertex -8.90485 6.21352 3.22088
    endloop
  endfacet
  facet normal 0.40199 -0.891006 -0.210978
    outer loop
      vertex -10.166 6.21352 0.818004
      vertex -9.7957 6.42658 0.623681
      vertex -8.90485 6.21352 3.22088
    endloop
  endfacet
  facet normal 0.138516 -0.987688 -0.0726978
    outer loop
      vertex -9.38527 6.5 0.408272
      vertex -7.97503 6.5 3.09529
      vertex -8.46387 6.42658 3.16132
    endloop
  endfacet
  facet normal 0.138516 -0.987688 -0.0726978
    outer loop
      vertex -9.7957 6.42658 0.623681
      vertex -9.38527 6.5 0.408272
      vertex -8.46387 6.42658 3.16132
    endloop
  endfacet
  facet normal -0.138516 -0.987688 0.0726978
    outer loop
      vertex -8.97484 6.42658 0.192864
      vertex -7.4862 6.42658 3.02927
      vertex -7.97503 6.5 3.09529
    endloop
  endfacet
  facet normal -0.138516 -0.987688 0.0726978
    outer loop
      vertex -9.38527 6.5 0.408272
      vertex -8.97484 6.42658 0.192864
      vertex -7.97503 6.5 3.09529
    endloop
  endfacet
  facet normal -0.40199 -0.891006 0.210978
    outer loop
      vertex -8.60458 6.21352 -0.00145955
      vertex -7.04521 6.21352 2.96971
      vertex -7.4862 6.42658 3.02927
    endloop
  endfacet
  facet normal -0.40199 -0.891006 0.210978
    outer loop
      vertex -8.97484 6.42658 0.192864
      vertex -8.60458 6.21352 -0.00145955
      vertex -7.4862 6.42658 3.02927
    endloop
  endfacet
  facet normal -0.626114 -0.707107 0.328606
    outer loop
      vertex -8.31075 5.88168 -0.155675
      vertex -6.69525 5.88168 2.92244
      vertex -7.04521 6.21352 2.96971
    endloop
  endfacet
  facet normal -0.626114 -0.707107 0.328606
    outer loop
      vertex -8.60458 6.21352 -0.00145955
      vertex -8.31075 5.88168 -0.155675
      vertex -7.04521 6.21352 2.96971
    endloop
  endfacet
  facet normal -0.788949 -0.453991 0.414067
    outer loop
      vertex -6.47055 5.46352 2.89209
      vertex -6.69525 5.88168 2.92244
      vertex -8.12209 5.46352 -0.254688
    endloop
  endfacet
  facet normal -0.788949 -0.453991 0.414067
    outer loop
      vertex -8.12209 5.46352 -0.254688
      vertex -6.69525 5.88168 2.92244
      vertex -8.31075 5.88168 -0.155675
    endloop
  endfacet
  facet normal -0.874557 -0.156434 0.458997
    outer loop
      vertex -6.39313 5 2.88164
      vertex -6.47055 5.46352 2.89209
      vertex -8.05708 5 -0.288805
    endloop
  endfacet
  facet normal -0.874557 -0.156434 0.458997
    outer loop
      vertex -8.05708 5 -0.288805
      vertex -6.47055 5.46352 2.89209
      vertex -8.12209 5.46352 -0.254688
    endloop
  endfacet
  facet normal -0.874557 0.156434 0.458997
    outer loop
      vertex -6.39313 5 2.88164
      vertex -8.05708 5 -0.288805
      vertex -6.47055 4.53647 2.89209
    endloop
  endfacet
  facet normal -0.874557 0.156434 0.458997
    outer loop
      vertex -6.47055 4.53647 2.89209
      vertex -8.05708 5 -0.288805
      vertex -8.12209 4.53647 -0.254688
    endloop
  endfacet
  facet normal -0.788949 0.453991 0.414067
    outer loop
      vertex -6.47055 4.53647 2.89209
      vertex -8.12209 4.53647 -0.254688
      vertex -6.69525 4.11832 2.92244
    endloop
  endfacet
  facet normal -0.788949 0.453991 0.414067
    outer loop
      vertex -6.69525 4.11832 2.92244
      vertex -8.12209 4.53647 -0.254688
      vertex -8.31075 4.11832 -0.155675
    endloop
  endfacet
  facet normal -0.626114 0.707107 0.328606
    outer loop
      vertex -6.69525 4.11832 2.92244
      vertex -8.31075 4.11832 -0.155675
      vertex -7.04521 3.78647 2.96971
    endloop
  endfacet
  facet normal -0.626114 0.707107 0.328606
    outer loop
      vertex -7.04521 3.78647 2.96971
      vertex -8.31075 4.11832 -0.155675
      vertex -8.60458 3.78647 -0.00145955
    endloop
  endfacet
  facet normal -0.40199 0.891006 0.210978
    outer loop
      vertex -7.04521 3.78647 2.96971
      vertex -8.60458 3.78647 -0.00145955
      vertex -7.4862 3.57341 3.02927
    endloop
  endfacet
  facet normal -0.40199 0.891006 0.210978
    outer loop
      vertex -7.4862 3.57341 3.02927
      vertex -8.60458 3.78647 -0.00145955
      vertex -8.97484 3.57341 0.192864
    endloop
  endfacet
  facet normal -0.138516 0.987688 0.0726978
    outer loop
      vertex -7.4862 3.57341 3.02927
      vertex -8.97484 3.57341 0.192864
      vertex -7.97503 3.5 3.09529
    endloop
  endfacet
  facet normal -0.138516 0.987688 0.0726978
    outer loop
      vertex -7.97503 3.5 3.09529
      vertex -8.97484 3.57341 0.192864
      vertex -9.38527 3.5 0.408272
    endloop
  endfacet
  facet normal 0.138516 0.987688 -0.0726978
    outer loop
      vertex -7.97503 3.5 3.09529
      vertex -9.38527 3.5 0.408272
      vertex -8.46387 3.57341 3.16132
    endloop
  endfacet
  facet normal 0.138516 0.987688 -0.0726978
    outer loop
      vertex -8.46387 3.57341 3.16132
      vertex -9.38527 3.5 0.408272
      vertex -9.7957 3.57341 0.623681
    endloop
  endfacet
  facet normal 0.40199 0.891006 -0.210978
    outer loop
      vertex -8.46387 3.57341 3.16132
      vertex -9.7957 3.57341 0.623681
      vertex -8.90485 3.78647 3.22088
    endloop
  endfacet
  facet normal 0.40199 0.891006 -0.210978
    outer loop
      vertex -8.90485 3.78647 3.22088
      vertex -9.7957 3.57341 0.623681
      vertex -10.166 3.78647 0.818004
    endloop
  endfacet
  facet normal 0.626114 0.707107 -0.328606
    outer loop
      vertex -8.90485 3.78647 3.22088
      vertex -10.166 3.78647 0.818004
      vertex -9.25482 4.11832 3.26814
    endloop
  endfacet
  facet normal 0.626114 0.707107 -0.328606
    outer loop
      vertex -9.25482 4.11832 3.26814
      vertex -10.166 3.78647 0.818004
      vertex -10.4598 4.11832 0.97222
    endloop
  endfacet
  facet normal 0.788949 0.453991 -0.414067
    outer loop
      vertex -9.47951 4.53647 3.29849
      vertex -9.25482 4.11832 3.26814
      vertex -10.4598 4.11832 0.97222
    endloop
  endfacet
  facet normal 0.788949 0.453991 -0.414067
    outer loop
      vertex -10.6485 4.53647 1.07123
      vertex -9.47951 4.53647 3.29849
      vertex -10.4598 4.11832 0.97222
    endloop
  endfacet
  facet normal 0.874557 -0.156434 -0.458997
    outer loop
      vertex -10.6485 45.4635 1.07123
      vertex -9.47951 45.4635 3.29849
      vertex -9.55694 45 3.30895
    endloop
  endfacet
  facet normal 0.874557 -0.156434 -0.458997
    outer loop
      vertex -10.7135 45 1.10535
      vertex -10.6485 45.4635 1.07123
      vertex -9.55694 45 3.30895
    endloop
  endfacet
  facet normal 0.874557 0.156434 -0.458997
    outer loop
      vertex -9.55694 45 3.30895
      vertex -9.47951 44.5365 3.29849
      vertex -10.6485 44.5365 1.07123
    endloop
  endfacet
  facet normal 0.874557 0.156434 -0.458997
    outer loop
      vertex -10.7135 45 1.10535
      vertex -9.55694 45 3.30895
      vertex -10.6485 44.5365 1.07123
    endloop
  endfacet
  facet normal 0.788949 -0.453991 -0.414067
    outer loop
      vertex -10.4598 45.8817 0.97222
      vertex -9.25482 45.8817 3.26814
      vertex -9.47951 45.4635 3.29849
    endloop
  endfacet
  facet normal 0.788949 -0.453991 -0.414067
    outer loop
      vertex -10.6485 45.4635 1.07123
      vertex -10.4598 45.8817 0.97222
      vertex -9.47951 45.4635 3.29849
    endloop
  endfacet
  facet normal 0.626114 -0.707107 -0.328606
    outer loop
      vertex -10.166 46.2135 0.818004
      vertex -8.90485 46.2135 3.22088
      vertex -9.25482 45.8817 3.26814
    endloop
  endfacet
  facet normal 0.626114 -0.707107 -0.328606
    outer loop
      vertex -10.4598 45.8817 0.97222
      vertex -10.166 46.2135 0.818004
      vertex -9.25482 45.8817 3.26814
    endloop
  endfacet
  facet normal 0.40199 -0.891006 -0.210978
    outer loop
      vertex -9.7957 46.4266 0.623681
      vertex -8.46387 46.4266 3.16132
      vertex -8.90485 46.2135 3.22088
    endloop
  endfacet
  facet normal 0.40199 -0.891006 -0.210978
    outer loop
      vertex -10.166 46.2135 0.818004
      vertex -9.7957 46.4266 0.623681
      vertex -8.90485 46.2135 3.22088
    endloop
  endfacet
  facet normal 0.138516 -0.987688 -0.0726978
    outer loop
      vertex -9.38527 46.5 0.408272
      vertex -7.97503 46.5 3.09529
      vertex -8.46387 46.4266 3.16132
    endloop
  endfacet
  facet normal 0.138516 -0.987688 -0.0726978
    outer loop
      vertex -9.7957 46.4266 0.623681
      vertex -9.38527 46.5 0.408272
      vertex -8.46387 46.4266 3.16132
    endloop
  endfacet
  facet normal -0.138516 -0.987688 0.0726978
    outer loop
      vertex -8.97484 46.4266 0.192864
      vertex -7.4862 46.4266 3.02927
      vertex -7.97503 46.5 3.09529
    endloop
  endfacet
  facet normal -0.138516 -0.987688 0.0726978
    outer loop
      vertex -9.38527 46.5 0.408272
      vertex -8.97484 46.4266 0.192864
      vertex -7.97503 46.5 3.09529
    endloop
  endfacet
  facet normal -0.40199 -0.891006 0.210978
    outer loop
      vertex -8.60458 46.2135 -0.00145955
      vertex -7.04521 46.2135 2.96971
      vertex -7.4862 46.4266 3.02927
    endloop
  endfacet
  facet normal -0.40199 -0.891006 0.210978
    outer loop
      vertex -8.97484 46.4266 0.192864
      vertex -8.60458 46.2135 -0.00145955
      vertex -7.4862 46.4266 3.02927
    endloop
  endfacet
  facet normal -0.626114 -0.707107 0.328606
    outer loop
      vertex -8.31075 45.8817 -0.155675
      vertex -6.69525 45.8817 2.92244
      vertex -7.04521 46.2135 2.96971
    endloop
  endfacet
  facet normal -0.626114 -0.707107 0.328606
    outer loop
      vertex -8.60458 46.2135 -0.00145955
      vertex -8.31075 45.8817 -0.155675
      vertex -7.04521 46.2135 2.96971
    endloop
  endfacet
  facet normal -0.788949 -0.453991 0.414067
    outer loop
      vertex -6.47055 45.4635 2.89209
      vertex -6.69525 45.8817 2.92244
      vertex -8.12209 45.4635 -0.254688
    endloop
  endfacet
  facet normal -0.788949 -0.453991 0.414067
    outer loop
      vertex -8.12209 45.4635 -0.254688
      vertex -6.69525 45.8817 2.92244
      vertex -8.31075 45.8817 -0.155675
    endloop
  endfacet
  facet normal -0.874557 -0.156434 0.458997
    outer loop
      vertex -6.39313 45 2.88164
      vertex -6.47055 45.4635 2.89209
      vertex -8.05708 45 -0.288805
    endloop
  endfacet
  facet normal -0.874557 -0.156434 0.458997
    outer loop
      vertex -8.05708 45 -0.288805
      vertex -6.47055 45.4635 2.89209
      vertex -8.12209 45.4635 -0.254688
    endloop
  endfacet
  facet normal -0.874557 0.156434 0.458997
    outer loop
      vertex -6.39313 45 2.88164
      vertex -8.05708 45 -0.288805
      vertex -6.47055 44.5365 2.89209
    endloop
  endfacet
  facet normal -0.874557 0.156434 0.458997
    outer loop
      vertex -6.47055 44.5365 2.89209
      vertex -8.05708 45 -0.288805
      vertex -8.12209 44.5365 -0.254688
    endloop
  endfacet
  facet normal -0.788949 0.453991 0.414067
    outer loop
      vertex -6.47055 44.5365 2.89209
      vertex -8.12209 44.5365 -0.254688
      vertex -6.69525 44.1183 2.92244
    endloop
  endfacet
  facet normal -0.788949 0.453991 0.414067
    outer loop
      vertex -6.69525 44.1183 2.92244
      vertex -8.12209 44.5365 -0.254688
      vertex -8.31075 44.1183 -0.155675
    endloop
  endfacet
  facet normal -0.626114 0.707107 0.328606
    outer loop
      vertex -6.69525 44.1183 2.92244
      vertex -8.31075 44.1183 -0.155675
      vertex -7.04521 43.7865 2.96971
    endloop
  endfacet
  facet normal -0.626114 0.707107 0.328606
    outer loop
      vertex -7.04521 43.7865 2.96971
      vertex -8.31075 44.1183 -0.155675
      vertex -8.60458 43.7865 -0.00145955
    endloop
  endfacet
  facet normal -0.40199 0.891006 0.210978
    outer loop
      vertex -7.04521 43.7865 2.96971
      vertex -8.60458 43.7865 -0.00145955
      vertex -7.4862 43.5734 3.02927
    endloop
  endfacet
  facet normal -0.40199 0.891006 0.210978
    outer loop
      vertex -7.4862 43.5734 3.02927
      vertex -8.60458 43.7865 -0.00145955
      vertex -8.97484 43.5734 0.192864
    endloop
  endfacet
  facet normal -0.138516 0.987688 0.0726978
    outer loop
      vertex -7.4862 43.5734 3.02927
      vertex -8.97484 43.5734 0.192864
      vertex -7.97503 43.5 3.09529
    endloop
  endfacet
  facet normal -0.138516 0.987688 0.0726978
    outer loop
      vertex -7.97503 43.5 3.09529
      vertex -8.97484 43.5734 0.192864
      vertex -9.38527 43.5 0.408272
    endloop
  endfacet
  facet normal 0.138516 0.987688 -0.0726978
    outer loop
      vertex -7.97503 43.5 3.09529
      vertex -9.38527 43.5 0.408272
      vertex -8.46387 43.5734 3.16132
    endloop
  endfacet
  facet normal 0.138516 0.987688 -0.0726978
    outer loop
      vertex -8.46387 43.5734 3.16132
      vertex -9.38527 43.5 0.408272
      vertex -9.7957 43.5734 0.623681
    endloop
  endfacet
  facet normal 0.40199 0.891006 -0.210978
    outer loop
      vertex -8.46387 43.5734 3.16132
      vertex -9.7957 43.5734 0.623681
      vertex -8.90485 43.7865 3.22088
    endloop
  endfacet
  facet normal 0.40199 0.891006 -0.210978
    outer loop
      vertex -8.90485 43.7865 3.22088
      vertex -9.7957 43.5734 0.623681
      vertex -10.166 43.7865 0.818004
    endloop
  endfacet
  facet normal 0.626114 0.707107 -0.328606
    outer loop
      vertex -8.90485 43.7865 3.22088
      vertex -10.166 43.7865 0.818004
      vertex -9.25482 44.1183 3.26814
    endloop
  endfacet
  facet normal 0.626114 0.707107 -0.328606
    outer loop
      vertex -9.25482 44.1183 3.26814
      vertex -10.166 43.7865 0.818004
      vertex -10.4598 44.1183 0.97222
    endloop
  endfacet
  facet normal 0.788949 0.453991 -0.414067
    outer loop
      vertex -9.47951 44.5365 3.29849
      vertex -9.25482 44.1183 3.26814
      vertex -10.4598 44.1183 0.97222
    endloop
  endfacet
  facet normal 0.788949 0.453991 -0.414067
    outer loop
      vertex -10.6485 44.5365 1.07123
      vertex -9.47951 44.5365 3.29849
      vertex -10.4598 44.1183 0.97222
    endloop
  endfacet
  facet normal 0.987688 -0.156434 0
    outer loop
      vertex 5.57341 5.46352 -3.5
      vertex 5.57341 5.46352 0.291294
      vertex 5.5 5 0.318015
    endloop
  endfacet
  facet normal 0.987688 -0.156434 0
    outer loop
      vertex 5.5 5 -3.5
      vertex 5.57341 5.46352 -3.5
      vertex 5.5 5 0.318015
    endloop
  endfacet
  facet normal 0.987688 0.156434 0
    outer loop
      vertex 5.5 5 0.318015
      vertex 5.57341 4.53647 0.291294
      vertex 5.57341 4.53647 -3.5
    endloop
  endfacet
  facet normal 0.987688 0.156434 0
    outer loop
      vertex 5.5 5 -3.5
      vertex 5.5 5 0.318015
      vertex 5.57341 4.53647 -3.5
    endloop
  endfacet
  facet normal 0.891006 0.453991 0
    outer loop
      vertex 5.57341 4.53647 0.291294
      vertex 5.78647 4.11832 0.213747
      vertex 5.78647 4.11832 -3.5
    endloop
  endfacet
  facet normal 0.891006 0.453991 0
    outer loop
      vertex 5.57341 4.53647 -3.5
      vertex 5.57341 4.53647 0.291294
      vertex 5.78647 4.11832 -3.5
    endloop
  endfacet
  facet normal 0.707107 0.707107 0
    outer loop
      vertex 6.11832 3.78647 0.0929641
      vertex 6.11832 3.78647 -3.5
      vertex 5.78647 4.11832 0.213747
    endloop
  endfacet
  facet normal 0.707107 0.707107 0
    outer loop
      vertex 5.78647 4.11832 0.213747
      vertex 6.11832 3.78647 -3.5
      vertex 5.78647 4.11832 -3.5
    endloop
  endfacet
  facet normal 0.453991 0.891006 0
    outer loop
      vertex 6.53647 3.57341 -0.0592312
      vertex 6.53647 3.57341 -3.5
      vertex 6.11832 3.78647 0.0929641
    endloop
  endfacet
  facet normal 0.453991 0.891006 0
    outer loop
      vertex 6.11832 3.78647 0.0929641
      vertex 6.53647 3.57341 -3.5
      vertex 6.11832 3.78647 -3.5
    endloop
  endfacet
  facet normal 0.156434 0.987688 0
    outer loop
      vertex 7 3.5 -0.22794
      vertex 7 3.5 -3.5
      vertex 6.53647 3.57341 -0.0592312
    endloop
  endfacet
  facet normal 0.156434 0.987688 0
    outer loop
      vertex 6.53647 3.57341 -0.0592312
      vertex 7 3.5 -3.5
      vertex 6.53647 3.57341 -3.5
    endloop
  endfacet
  facet normal -0.156434 0.987688 0
    outer loop
      vertex 7.46352 3.57341 -0.39665
      vertex 7.46352 3.57341 -3.5
      vertex 7 3.5 -0.22794
    endloop
  endfacet
  facet normal -0.156434 0.987688 0
    outer loop
      vertex 7 3.5 -0.22794
      vertex 7.46352 3.57341 -3.5
      vertex 7 3.5 -3.5
    endloop
  endfacet
  facet normal -0.453991 0.891006 0
    outer loop
      vertex 7.88168 3.78647 -0.548845
      vertex 7.88168 3.78647 -3.5
      vertex 7.46352 3.57341 -0.39665
    endloop
  endfacet
  facet normal -0.453991 0.891006 0
    outer loop
      vertex 7.46352 3.57341 -0.39665
      vertex 7.88168 3.78647 -3.5
      vertex 7.46352 3.57341 -3.5
    endloop
  endfacet
  facet normal -0.707107 0.707107 0
    outer loop
      vertex 8.21352 4.11832 -0.669627
      vertex 8.21352 4.11832 -3.5
      vertex 7.88168 3.78647 -0.548845
    endloop
  endfacet
  facet normal -0.707107 0.707107 0
    outer loop
      vertex 7.88168 3.78647 -0.548845
      vertex 8.21352 4.11832 -3.5
      vertex 7.88168 3.78647 -3.5
    endloop
  endfacet
  facet normal -0.891006 0.453991 0
    outer loop
      vertex 8.42658 4.53647 -0.747175
      vertex 8.42658 4.53647 -3.5
      vertex 8.21352 4.11832 -0.669627
    endloop
  endfacet
  facet normal -0.891006 0.453991 0
    outer loop
      vertex 8.21352 4.11832 -0.669627
      vertex 8.42658 4.53647 -3.5
      vertex 8.21352 4.11832 -3.5
    endloop
  endfacet
  facet normal -0.987688 0.156434 0
    outer loop
      vertex 8.5 5 -0.773896
      vertex 8.5 5 -3.5
      vertex 8.42658 4.53647 -0.747175
    endloop
  endfacet
  facet normal -0.987688 0.156434 0
    outer loop
      vertex 8.42658 4.53647 -0.747175
      vertex 8.5 5 -3.5
      vertex 8.42658 4.53647 -3.5
    endloop
  endfacet
  facet normal -0.987688 -0.156434 0
    outer loop
      vertex 8.5 5 -0.773896
      vertex 8.42658 5.46352 -0.747175
      vertex 8.5 5 -3.5
    endloop
  endfacet
  facet normal -0.987688 -0.156434 0
    outer loop
      vertex 8.5 5 -3.5
      vertex 8.42658 5.46352 -0.747175
      vertex 8.42658 5.46352 -3.5
    endloop
  endfacet
  facet normal -0.891006 -0.453991 0
    outer loop
      vertex 8.42658 5.46352 -0.747175
      vertex 8.21352 5.88168 -0.669627
      vertex 8.42658 5.46352 -3.5
    endloop
  endfacet
  facet normal -0.891006 -0.453991 0
    outer loop
      vertex 8.42658 5.46352 -3.5
      vertex 8.21352 5.88168 -0.669627
      vertex 8.21352 5.88168 -3.5
    endloop
  endfacet
  facet normal -0.707107 -0.707107 0
    outer loop
      vertex 8.21352 5.88168 -3.5
      vertex 8.21352 5.88168 -0.669627
      vertex 7.88168 6.21352 -0.548845
    endloop
  endfacet
  facet normal -0.707107 -0.707107 0
    outer loop
      vertex 7.88168 6.21352 -3.5
      vertex 8.21352 5.88168 -3.5
      vertex 7.88168 6.21352 -0.548845
    endloop
  endfacet
  facet normal -0.453991 -0.891006 0
    outer loop
      vertex 7.88168 6.21352 -3.5
      vertex 7.88168 6.21352 -0.548845
      vertex 7.46352 6.42658 -0.39665
    endloop
  endfacet
  facet normal -0.453991 -0.891006 0
    outer loop
      vertex 7.46352 6.42658 -3.5
      vertex 7.88168 6.21352 -3.5
      vertex 7.46352 6.42658 -0.39665
    endloop
  endfacet
  facet normal -0.156434 -0.987688 0
    outer loop
      vertex 7.46352 6.42658 -3.5
      vertex 7.46352 6.42658 -0.39665
      vertex 7 6.5 -0.22794
    endloop
  endfacet
  facet normal -0.156434 -0.987688 0
    outer loop
      vertex 7 6.5 -3.5
      vertex 7.46352 6.42658 -3.5
      vertex 7 6.5 -0.22794
    endloop
  endfacet
  facet normal 0.156434 -0.987688 0
    outer loop
      vertex 7 6.5 -3.5
      vertex 7 6.5 -0.22794
      vertex 6.53647 6.42658 -0.0592312
    endloop
  endfacet
  facet normal 0.156434 -0.987688 0
    outer loop
      vertex 6.53647 6.42658 -3.5
      vertex 7 6.5 -3.5
      vertex 6.53647 6.42658 -0.0592312
    endloop
  endfacet
  facet normal 0.453991 -0.891006 0
    outer loop
      vertex 6.53647 6.42658 -3.5
      vertex 6.53647 6.42658 -0.0592312
      vertex 6.11832 6.21352 0.0929641
    endloop
  endfacet
  facet normal 0.453991 -0.891006 0
    outer loop
      vertex 6.11832 6.21352 -3.5
      vertex 6.53647 6.42658 -3.5
      vertex 6.11832 6.21352 0.0929641
    endloop
  endfacet
  facet normal 0.707107 -0.707107 0
    outer loop
      vertex 6.11832 6.21352 -3.5
      vertex 6.11832 6.21352 0.0929641
      vertex 5.78647 5.88168 0.213747
    endloop
  endfacet
  facet normal 0.707107 -0.707107 0
    outer loop
      vertex 5.78647 5.88168 -3.5
      vertex 6.11832 6.21352 -3.5
      vertex 5.78647 5.88168 0.213747
    endloop
  endfacet
  facet normal 0.891006 -0.453991 0
    outer loop
      vertex 5.78647 5.88168 -3.5
      vertex 5.78647 5.88168 0.213747
      vertex 5.57341 5.46352 0.291294
    endloop
  endfacet
  facet normal 0.891006 -0.453991 0
    outer loop
      vertex 5.57341 5.46352 -3.5
      vertex 5.78647 5.88168 -3.5
      vertex 5.57341 5.46352 0.291294
    endloop
  endfacet
  facet normal 0.987688 -0.156434 0
    outer loop
      vertex 5.57341 45.4635 -3.5
      vertex 5.57341 45.4635 0.291294
      vertex 5.5 45 0.318015
    endloop
  endfacet
  facet normal 0.987688 -0.156434 0
    outer loop
      vertex 5.5 45 -3.5
      vertex 5.57341 45.4635 -3.5
      vertex 5.5 45 0.318015
    endloop
  endfacet
  facet normal 0.987688 0.156434 0
    outer loop
      vertex 5.5 45 0.318015
      vertex 5.57341 44.5365 0.291294
      vertex 5.57341 44.5365 -3.5
    endloop
  endfacet
  facet normal 0.987688 0.156434 0
    outer loop
      vertex 5.5 45 -3.5
      vertex 5.5 45 0.318015
      vertex 5.57341 44.5365 -3.5
    endloop
  endfacet
  facet normal 0.891006 0.453991 0
    outer loop
      vertex 5.57341 44.5365 0.291294
      vertex 5.78647 44.1183 0.213747
      vertex 5.78647 44.1183 -3.5
    endloop
  endfacet
  facet normal 0.891006 0.453991 0
    outer loop
      vertex 5.57341 44.5365 -3.5
      vertex 5.57341 44.5365 0.291294
      vertex 5.78647 44.1183 -3.5
    endloop
  endfacet
  facet normal 0.707107 0.707107 0
    outer loop
      vertex 6.11832 43.7865 0.0929641
      vertex 6.11832 43.7865 -3.5
      vertex 5.78647 44.1183 0.213747
    endloop
  endfacet
  facet normal 0.707107 0.707107 0
    outer loop
      vertex 5.78647 44.1183 0.213747
      vertex 6.11832 43.7865 -3.5
      vertex 5.78647 44.1183 -3.5
    endloop
  endfacet
  facet normal 0.453991 0.891006 0
    outer loop
      vertex 6.53647 43.5734 -0.0592312
      vertex 6.53647 43.5734 -3.5
      vertex 6.11832 43.7865 0.0929641
    endloop
  endfacet
  facet normal 0.453991 0.891006 0
    outer loop
      vertex 6.11832 43.7865 0.0929641
      vertex 6.53647 43.5734 -3.5
      vertex 6.11832 43.7865 -3.5
    endloop
  endfacet
  facet normal 0.156434 0.987688 0
    outer loop
      vertex 7 43.5 -0.22794
      vertex 7 43.5 -3.5
      vertex 6.53647 43.5734 -0.0592312
    endloop
  endfacet
  facet normal 0.156434 0.987688 0
    outer loop
      vertex 6.53647 43.5734 -0.0592312
      vertex 7 43.5 -3.5
      vertex 6.53647 43.5734 -3.5
    endloop
  endfacet
  facet normal -0.156434 0.987688 0
    outer loop
      vertex 7.46352 43.5734 -0.39665
      vertex 7.46352 43.5734 -3.5
      vertex 7 43.5 -0.22794
    endloop
  endfacet
  facet normal -0.156434 0.987688 0
    outer loop
      vertex 7 43.5 -0.22794
      vertex 7.46352 43.5734 -3.5
      vertex 7 43.5 -3.5
    endloop
  endfacet
  facet normal -0.453991 0.891006 0
    outer loop
      vertex 7.88168 43.7865 -0.548845
      vertex 7.88168 43.7865 -3.5
      vertex 7.46352 43.5734 -0.39665
    endloop
  endfacet
  facet normal -0.453991 0.891006 0
    outer loop
      vertex 7.46352 43.5734 -0.39665
      vertex 7.88168 43.7865 -3.5
      vertex 7.46352 43.5734 -3.5
    endloop
  endfacet
  facet normal -0.707107 0.707107 0
    outer loop
      vertex 8.21352 44.1183 -0.669627
      vertex 8.21352 44.1183 -3.5
      vertex 7.88168 43.7865 -0.548845
    endloop
  endfacet
  facet normal -0.707107 0.707107 0
    outer loop
      vertex 7.88168 43.7865 -0.548845
      vertex 8.21352 44.1183 -3.5
      vertex 7.88168 43.7865 -3.5
    endloop
  endfacet
  facet normal -0.891006 0.453991 0
    outer loop
      vertex 8.42658 44.5365 -0.747175
      vertex 8.42658 44.5365 -3.5
      vertex 8.21352 44.1183 -0.669627
    endloop
  endfacet
  facet normal -0.891006 0.453991 0
    outer loop
      vertex 8.21352 44.1183 -0.669627
      vertex 8.42658 44.5365 -3.5
      vertex 8.21352 44.1183 -3.5
    endloop
  endfacet
  facet normal -0.987688 0.156434 0
    outer loop
      vertex 8.5 45 -0.773896
      vertex 8.5 45 -3.5
      vertex 8.42658 44.5365 -0.747175
    endloop
  endfacet
  facet normal -0.987688 0.156434 0
    outer loop
      vertex 8.42658 44.5365 -0.747175
      vertex 8.5 45 -3.5
      vertex 8.42658 44.5365 -3.5
    endloop
  endfacet
  facet normal -0.987688 -0.156434 0
    outer loop
      vertex 8.5 45 -0.773896
      vertex 8.42658 45.4635 -0.747175
      vertex 8.5 45 -3.5
    endloop
  endfacet
  facet normal -0.987688 -0.156434 0
    outer loop
      vertex 8.5 45 -3.5
      vertex 8.42658 45.4635 -0.747175
      vertex 8.42658 45.4635 -3.5
    endloop
  endfacet
  facet normal -0.891006 -0.453991 0
    outer loop
      vertex 8.42658 45.4635 -0.747175
      vertex 8.21352 45.8817 -0.669627
      vertex 8.42658 45.4635 -3.5
    endloop
  endfacet
  facet normal -0.891006 -0.453991 0
    outer loop
      vertex 8.42658 45.4635 -3.5
      vertex 8.21352 45.8817 -0.669627
      vertex 8.21352 45.8817 -3.5
    endloop
  endfacet
  facet normal -0.707107 -0.707107 0
    outer loop
      vertex 8.21352 45.8817 -3.5
      vertex 8.21352 45.8817 -0.669627
      vertex 7.88168 46.2135 -0.548845
    endloop
  endfacet
  facet normal -0.707107 -0.707107 0
    outer loop
      vertex 7.88168 46.2135 -3.5
      vertex 8.21352 45.8817 -3.5
      vertex 7.88168 46.2135 -0.548845
    endloop
  endfacet
  facet normal -0.453991 -0.891006 0
    outer loop
      vertex 7.88168 46.2135 -3.5
      vertex 7.88168 46.2135 -0.548845
      vertex 7.46352 46.4266 -0.39665
    endloop
  endfacet
  facet normal -0.453991 -0.891006 0
    outer loop
      vertex 7.46352 46.4266 -3.5
      vertex 7.88168 46.2135 -3.5
      vertex 7.46352 46.4266 -0.39665
    endloop
  endfacet
  facet normal -0.156434 -0.987688 0
    outer loop
      vertex 7.46352 46.4266 -3.5
      vertex 7.46352 46.4266 -0.39665
      vertex 7 46.5 -0.22794
    endloop
  endfacet
  facet normal -0.156434 -0.987688 0
    outer loop
      vertex 7 46.5 -3.5
      vertex 7.46352 46.4266 -3.5
      vertex 7 46.5 -0.22794
    endloop
  endfacet
  facet normal 0.156434 -0.987688 0
    outer loop
      vertex 7 46.5 -3.5
      vertex 7 46.5 -0.22794
      vertex 6.53647 46.4266 -0.0592312
    endloop
  endfacet
  facet normal 0.156434 -0.987688 0
    outer loop
      vertex 6.53647 46.4266 -3.5
      vertex 7 46.5 -3.5
      vertex 6.53647 46.4266 -0.0592312
    endloop
  endfacet
  facet normal 0.453991 -0.891006 0
    outer loop
      vertex 6.53647 46.4266 -3.5
      vertex 6.53647 46.4266 -0.0592312
      vertex 6.11832 46.2135 0.0929641
    endloop
  endfacet
  facet normal 0.453991 -0.891006 0
    outer loop
      vertex 6.11832 46.2135 -3.5
      vertex 6.53647 46.4266 -3.5
      vertex 6.11832 46.2135 0.0929641
    endloop
  endfacet
  facet normal 0.707107 -0.707107 0
    outer loop
      vertex 6.11832 46.2135 -3.5
      vertex 6.11832 46.2135 0.0929641
      vertex 5.78647 45.8817 0.213747
    endloop
  endfacet
  facet normal 0.707107 -0.707107 0
    outer loop
      vertex 5.78647 45.8817 -3.5
      vertex 6.11832 46.2135 -3.5
      vertex 5.78647 45.8817 0.213747
    endloop
  endfacet
  facet normal 0.891006 -0.453991 0
    outer loop
      vertex 5.78647 45.8817 -3.5
      vertex 5.78647 45.8817 0.213747
      vertex 5.57341 45.4635 0.291294
    endloop
  endfacet
  facet normal 0.891006 -0.453991 0
    outer loop
      vertex 5.57341 45.4635 -3.5
      vertex 5.78647 45.8817 -3.5
      vertex 5.57341 45.4635 0.291294
    endloop
  endfacet
endsolid OpenSCAD_Model
